<svg width="140" height="49" viewBox="0 0 140 49" fill="none" xmlns="http://www.w3.org/2000/svg">
<g id="Group">
<g id="Group_2">
<path id="Vector" d="M139.978 18.5173C139.978 18.0984 139.939 17.7074 139.894 17.7018C139.866 17.6962 139.821 17.8526 139.799 18.0425C139.788 18.1152 139.782 18.171 139.777 18.2157C139.754 18.2548 139.754 18.1096 139.771 17.713C139.777 17.6515 139.777 17.5845 139.777 17.523C139.777 17.5175 139.777 17.5175 139.777 17.5119C139.855 16.5734 139.832 15.4507 139.732 15.244C139.676 15.1323 139.648 15.1155 139.637 15.1825C139.62 15.2552 139.598 15.244 139.536 15.1379C139.52 15.1043 139.492 15.0708 139.458 15.0317C139.436 14.9926 139.408 14.9647 139.369 14.9368C139.346 14.9144 139.319 14.8921 139.296 14.8753C139.145 14.7636 139.117 14.7636 138.983 14.8921L139.062 14.8083C139.017 14.7971 138.972 14.7524 138.905 14.6686L138.894 14.6519C138.782 14.5122 138.749 14.4955 138.732 14.5737C138.732 14.5737 138.71 14.6016 138.676 14.6351L51.7871 14.6854C51.5748 14.6798 51.3346 14.6686 51.0609 14.6575C49.9717 14.6575 49.3907 14.663 49.3181 14.6575C49.279 14.6575 49.2176 14.6631 49.1226 14.6854H47.6703C47.5027 14.6184 47.391 14.5848 47.3295 14.5793C47.2569 14.5793 47.2011 14.5402 47.1564 14.4731C47.1117 14.4061 47.067 14.367 47.0167 14.367C46.9218 14.3614 46.8715 14.4061 46.8715 14.4955C46.8715 14.5402 46.8212 14.5625 46.7263 14.5569C46.6313 14.5513 46.5475 14.5178 46.4805 14.4452C46.4134 14.3782 46.3297 14.3391 46.2347 14.3335C46.19 14.3335 45.961 14.3223 45.5588 14.3056C45.1566 14.2888 44.8829 14.2776 44.7432 14.272L44.7768 13.395C44.8885 12.9482 45.0225 12.5683 45.1734 12.2611C45.3242 10.8255 45.4527 9.95412 45.5588 9.6413C45.4136 9.76978 45.313 9.87591 45.2627 9.96529C45.1734 9.87033 45.151 9.8033 45.2013 9.75861C45.2069 9.66923 45.2125 9.51283 45.2181 9.28381C45.2739 9.06037 45.3018 8.90396 45.3074 8.81459L45.1175 8.61908C44.4137 11.1048 43.8886 12.9984 43.5367 14.2888C43.4417 14.3726 43.3412 14.4173 43.2462 14.4117C43.2574 14.0486 43.3077 13.6688 43.397 13.2666C43.4864 12.8644 43.5534 12.6074 43.6037 12.4957C43.654 12.384 43.7266 12.3337 43.8216 12.3337C43.8272 12.1997 43.8327 11.9986 43.8439 11.7249C43.9054 11.412 43.9333 11.2109 43.9389 11.1216C43.9333 11.2556 43.8551 11.3897 43.7099 11.5182L43.5702 11.3785C43.9221 9.54634 44.1902 8.20572 44.3634 7.35666C44.3634 7.40135 44.3131 7.42369 44.2182 7.41811C44.1735 7.36783 44.1511 7.27846 44.1567 7.1444C44.1511 7.32315 44.1232 7.43486 44.0729 7.47955C43.9892 7.25053 43.9445 7.09412 43.9501 7.00475C43.4697 8.51853 43.1401 9.63013 42.9725 10.3451H42.8999L42.939 9.33408C42.9669 8.56881 43.0954 7.67506 43.3244 6.64725C43.2183 7.00475 43.0395 7.24494 42.7994 7.37342C42.7658 6.96565 42.777 6.71987 42.8273 6.63049C42.3245 7.32873 41.9503 7.83146 41.7045 8.13869C41.5369 7.54658 41.509 7.07178 41.6151 6.71428C41.4364 6.47967 41.3414 6.3903 41.3414 6.43498C41.3414 6.47967 41.3973 6.14452 41.5202 5.42952C41.5816 4.98264 41.5816 4.4855 41.5034 3.94366C41.5034 3.98835 41.4308 4.03304 41.2856 4.07214C41.3805 4.1671 41.4196 4.3235 41.4085 4.55253C41.0454 5.396 40.8499 6.06073 40.8331 6.55787C40.7381 6.5076 40.699 6.41823 40.7046 6.28416C40.2578 8.11076 39.5148 10.8311 38.4758 14.4396C38.4256 14.5737 38.325 14.6798 38.1798 14.7636C37.6547 14.8809 37.2749 14.9312 37.0347 14.92C36.9397 14.9144 36.7386 14.9312 36.4258 14.9647C36.1186 14.9982 35.9287 15.015 35.856 15.0094C35.7834 15.0094 35.2975 15.0094 34.3981 15.0205C33.4988 15.0317 33.0016 15.0373 32.9067 15.0317C32.7614 15.0261 32.6721 15.0205 32.6218 15.0205C32.443 14.7859 32.2811 14.6239 32.1414 14.529C32.7614 13.1549 33.2027 11.6411 33.4541 9.98763C33.51 9.71951 33.6217 9.31732 33.7837 8.78107C33.9457 8.24482 34.0294 7.95994 34.0294 7.90967C34.035 7.77561 33.9792 7.69182 33.8619 7.66947C33.7446 7.64154 33.6384 7.63037 33.5435 7.62479L33.5491 7.55775C33.9289 7.52424 34.1523 7.28963 34.2138 6.83717C34.2752 6.3903 34.3199 5.98252 34.3311 5.62503C34.2305 5.79819 34.1747 6.02721 34.1635 6.29534L33.9512 6.28975C33.9624 6.02163 34.0127 5.65854 34.0965 5.21167C34.1859 4.76479 34.2305 4.42964 34.2417 4.2062L33.739 4.3235C33.7334 4.45757 33.7669 4.53577 33.8339 4.5637C33.9066 4.59163 33.9624 4.66983 34.0015 4.80948C33.7055 5.11112 33.5044 5.37366 33.4038 5.5971C33.3591 5.50772 33.3424 5.4351 33.3424 5.39042C33.186 5.74792 33.1525 6.08307 33.2307 6.40147C33.1357 6.48526 33.0575 6.57463 33.0072 6.66401C33.0463 6.84276 33.091 6.96006 33.1357 7.00475C32.9346 7.26729 32.7838 7.48514 32.6832 7.66389C32.6386 7.56893 32.6497 7.36783 32.7056 7.05502C32.7056 7.09971 32.633 7.16674 32.4877 7.25053C32.4039 6.97682 32.4375 6.66401 32.5939 6.30651C32.4989 6.30092 32.4319 6.27858 32.3816 6.2283C32.4821 6.13893 32.5548 6.09983 32.5995 6.09983C32.7056 5.78702 32.7614 5.49655 32.7726 5.22842C32.9067 4.19503 32.9849 3.39066 33.0072 2.80413C33.158 2.34609 33.2921 1.96066 33.4094 1.63668C33.2307 2.08355 33.024 2.55835 32.7838 3.06667L32.7335 2.59187C33.1692 1.12277 33.3871 0.340741 33.3927 0.251367L33.4206 0C33.1189 0.441288 32.7335 1.25683 32.2587 2.45781C31.8454 3.42976 31.5158 3.98276 31.27 4.11124C31.0075 3.46886 30.9795 2.97171 31.1862 2.6198C31.0354 2.83765 30.9237 2.99406 30.8455 3.07784C30.7784 3.16722 30.65 3.44093 30.4656 3.91015C30.2813 4.37936 30.1193 4.65307 29.9741 4.73686C29.8791 4.68659 29.8623 4.6419 29.907 4.59722C29.9126 4.50784 29.9741 4.39612 30.097 4.26765C30.2198 4.13917 30.2813 4.02745 30.2869 3.93808C30.4489 3.4912 30.5327 3.08902 30.5494 2.73152C30.8399 2.51367 30.9907 2.29581 31.0019 2.07238C31.0075 1.89363 30.9181 1.73164 30.7338 1.5864C29.9629 3.17839 29.516 4.35702 29.3931 5.11671C29.3429 5.25077 29.192 5.40159 28.9518 5.56917C28.8513 5.70323 28.801 5.82053 28.7954 5.93784C28.7899 6.04956 28.7619 6.1501 28.7116 6.23948C28.7508 6.4685 28.7675 6.62491 28.7675 6.71428C28.6111 7.11647 28.4379 7.31197 28.248 7.3008C28.2033 7.3008 28.1698 7.25053 28.1475 7.16115C28.1251 7.07178 28.0693 7.02151 27.9743 7.02151L27.6168 7.01033C27.7732 6.60815 27.857 6.23389 27.8738 5.87081C27.6783 5.99928 27.5107 6.10541 27.3654 6.1892C27.4548 6.37354 27.4157 6.68635 27.2593 7.13322C27.0973 7.57451 27.0191 7.84264 27.0135 7.93201C27.0079 8.11076 27.075 8.25041 27.2146 8.34537C26.8739 8.55764 26.6728 8.90955 26.6058 9.40111C26.5946 9.62455 26.6169 9.78095 26.6616 9.87591L26.1421 10.5295C26.131 10.7808 26.1533 10.9205 26.198 10.954C26.1645 10.9652 26.131 10.9763 26.0863 11.0043C26.0136 11.0434 25.9522 11.0657 25.9075 11.0657C26.0416 11.2501 26.0304 11.5405 25.874 11.9427L25.5556 12.8085L25.2707 12.7974C25.3098 12.9817 25.3992 13.1828 25.5333 13.4174C25.1869 13.8084 24.9635 14.1156 24.8574 14.3391C24.8462 14.6966 24.835 14.9703 24.8238 15.149C24.1479 15.4842 23.5503 15.6629 23.0252 15.6909C22.9246 15.8193 22.852 15.8864 22.8017 15.8864C22.7068 15.8808 22.6509 15.8584 22.6286 15.8138C22.6062 15.7691 22.5504 15.7411 22.4554 15.7411C22.4107 15.7411 22.3158 15.7355 22.1705 15.73C22.0253 15.7691 21.9303 15.7858 21.8856 15.7858C21.8801 15.9646 21.8521 16.0763 21.8019 16.121L22.3716 16.1433C22.8408 16.2048 23.1034 16.2606 23.1481 16.3109L22.9972 16.5064C22.8073 16.5008 22.5224 16.512 22.1426 16.5399C21.7628 16.5679 21.5505 16.5846 21.5002 16.5846C20.0311 16.5287 17.8247 16.6237 14.8809 16.8751C14.7357 16.9589 14.6575 17.0706 14.6519 17.2046L15.6462 17.2437L15.7858 17.3834L15.6406 17.5119L14.2944 17.4616C14.1994 17.456 14.0598 17.4895 13.8643 17.5454C13.6743 17.6068 13.5515 17.6348 13.5068 17.6348C13.2722 17.6236 12.9147 17.6459 12.4399 17.6962C11.965 17.7465 11.6913 17.78 11.6187 17.8023C11.5461 17.8191 11.3953 17.8582 11.1551 17.9196C11.0992 17.9308 11.0545 17.942 11.0043 17.9476C11.7472 17.9811 12.7638 18.0425 14.0598 18.1263C15.5736 18.2269 16.283 18.2771 16.188 18.2771C16.4729 18.2883 16.6572 18.3386 16.7522 18.4335L16.607 18.562C16.512 18.5564 16.3723 18.5509 16.1824 18.5453C15.9925 18.5397 15.8529 18.5341 15.7579 18.5285C15.378 18.5118 15.2161 18.5285 15.2552 18.5788C15.1099 18.7519 14.8921 18.8804 14.6016 18.9586C13.5515 19.143 12.7638 19.2714 12.2388 19.3441C10.0044 19.5284 7.9376 19.6289 6.04397 19.6457C6.18362 19.7853 6.25065 19.8803 6.24506 19.925L5.74792 19.9082C5.61385 19.7686 5.49655 19.696 5.40159 19.6904C5.45186 19.6904 5.49655 19.7351 5.54124 19.83C5.35132 19.9138 5.13346 19.9529 4.89886 19.9417C4.80389 19.9362 4.74804 19.9026 4.72569 19.8356C4.70335 19.7686 4.64749 19.7295 4.55253 19.7295C4.22296 19.7183 3.2957 19.7965 1.77074 19.9641C1.28476 20.2155 0.921677 20.4054 0.681483 20.5339C1.54171 20.2937 2.30699 20.1875 2.96613 20.2155C3.25101 20.2266 3.43534 20.2769 3.5303 20.3719L3.35155 20.5394C2.83765 20.3383 2.36285 20.3886 1.92156 20.6847C2.06121 20.7796 2.15058 20.8299 2.20085 20.8299C2.20085 20.7852 2.22878 20.7405 2.27906 20.6958C2.32933 20.6512 2.35167 20.6065 2.35726 20.5618C3.06109 20.7685 3.62526 20.8578 4.05538 20.8299C4.19503 20.9249 4.31233 20.9751 4.40729 20.9807C4.31792 20.8858 4.34026 20.8411 4.4855 20.8467C5.24518 20.8746 5.81495 20.8523 6.19479 20.774C6.23948 20.8187 6.26182 20.9137 6.25623 21.0478C6.20038 21.3159 5.98252 21.3773 5.60827 21.2265C5.50772 21.2321 5.31221 21.2433 5.02733 21.2824C4.74245 21.3159 4.5246 21.3326 4.38495 21.3271L4.87093 21.6175C4.96589 21.6231 4.99382 21.5896 4.94354 21.517C4.89886 21.4499 4.92678 21.4164 5.01616 21.4164C5.11112 21.422 5.20608 21.4555 5.29546 21.5282C5.39042 21.6008 5.47979 21.6343 5.57475 21.6399C5.66971 21.6455 5.74233 21.6119 5.7926 21.5449C5.84288 21.4779 5.91549 21.4499 6.01045 21.4499C6.15569 21.4555 6.34002 21.5282 6.56905 21.6734C7.18908 21.5617 7.80354 21.584 8.4124 21.746C8.40682 21.8354 8.38447 21.9024 8.3342 21.9471C6.77573 21.7963 5.6362 21.8019 4.9212 21.9527C5.34573 21.9694 6.3903 22.0085 8.04373 22.07C8.13869 22.0756 8.23365 22.0421 8.3342 21.9806C8.43474 21.9192 8.50178 21.8856 8.55205 21.8856C8.7308 22.1203 8.87045 22.2376 8.96541 22.2376C8.90955 21.9527 8.87603 21.7963 8.85369 21.7572C8.90396 21.7516 8.96541 21.7125 9.05478 21.6343C9.09947 21.679 9.11623 21.8186 9.11064 22.0421C9.49607 21.9639 9.68041 21.975 9.68041 22.0644C9.15533 22.2208 8.79224 22.366 8.59674 22.4945C8.7308 22.6789 8.8481 22.7962 8.93748 22.8464C8.84252 22.8408 8.46268 22.8297 7.80354 22.8017C7.82588 22.8017 7.78678 22.8241 7.6974 22.8632L7.94877 22.8744L7.94318 23.0755L7.6583 23.0643L7.66389 22.8799C7.541 22.9302 7.35108 23.0084 7.08854 23.109C7.89291 23.1369 8.48502 23.2039 8.85927 23.3101C8.52412 23.3883 8.21689 23.4218 7.93201 23.4106C8.06607 23.5503 8.13311 23.6676 8.13311 23.7569C8.17779 23.7569 8.25599 23.7011 8.35096 23.5949C8.4515 23.4888 8.54646 23.4329 8.64142 23.4385L8.78107 23.4441C8.78107 23.4888 8.80342 23.5112 8.8481 23.5167C8.94306 23.5223 9.06037 23.4776 9.2056 23.3939C9.35084 23.3101 9.47373 23.271 9.56869 23.271C9.84798 23.4609 10.1552 23.5167 10.4848 23.4441C10.8199 23.4106 11.1048 23.4218 11.3394 23.4776C11.1383 23.7849 10.9931 23.9357 10.8981 23.9357C11.7025 23.9692 12.127 23.9804 12.1773 23.986C12.0824 23.891 12.0656 23.824 12.1159 23.7793C12.2555 23.8742 12.3952 23.9245 12.5348 23.9301C12.6298 23.9357 12.7359 23.891 12.8588 23.8072C12.9817 23.7234 13.0655 23.6787 13.1102 23.6843L13.395 23.6955L13.6017 23.9078C13.7916 23.958 13.9313 23.9636 14.0263 23.9245C14.2106 24.0195 14.3502 24.0697 14.4452 24.0753C14.2553 24.1591 14.0598 24.1926 13.8754 24.187C13.9201 24.187 13.4621 24.1926 12.4901 24.2038C11.5182 24.2094 10.8199 24.2094 10.3954 24.1926C10.5351 24.2429 12.0544 24.2541 14.9423 24.2317C14.9479 24.0083 14.9814 23.8966 15.0261 23.8966C14.9814 23.8966 14.8865 23.9133 14.7413 23.9524C14.6463 23.9469 14.5513 23.9469 14.4564 23.9413C14.0765 23.9245 13.8419 23.8742 13.7525 23.7793C13.8978 23.6955 13.9983 23.6452 14.043 23.6229C14.0933 23.6005 14.1994 23.5726 14.367 23.5335C14.5346 23.4944 14.6407 23.4776 14.691 23.4776C14.7859 23.4832 14.8809 23.5279 14.9703 23.6229C15.0597 23.7178 15.1323 23.7625 15.177 23.7681C15.6518 23.6955 16.0316 23.7122 16.3109 23.8128C16.2159 23.8519 16.0484 23.8687 15.8082 23.8631C16.6125 23.8966 17.0371 23.9301 17.0818 23.9804C16.8416 24.0586 16.6516 24.12 16.5064 24.1647C17.0929 24.1312 17.5901 24.1088 18.0146 24.0865C17.9811 24.0865 17.9532 24.0865 17.9364 24.0809C17.7018 24.0697 17.5845 24.0251 17.5845 23.9301C17.7297 23.9357 17.9196 23.9189 18.1543 23.8854C18.266 23.8687 18.3665 23.8519 18.4559 23.8351C18.4503 23.8351 18.4447 23.8351 18.4391 23.8296L18.2995 23.6899L18.8748 23.5782C19.0145 23.5838 19.1821 23.634 19.3664 23.729C19.1709 23.8575 19.0536 23.9413 19.0033 23.986L22.3381 24.1144C21.9192 25.0864 21.6343 25.8014 21.4723 26.2427C21.4723 26.2874 21.4667 26.332 21.4667 26.3767C21.2768 26.4605 21.1483 26.6113 21.0924 26.8348C20.5953 28.7507 20.2099 30.1807 19.9362 31.1136C19.7407 31.3314 18.9754 31.4152 17.6515 31.365C16.7522 31.3314 16.4226 31.3426 16.6572 31.3929C16.1489 31.2979 15.8864 31.2477 15.8696 31.2309C15.8249 31.2365 15.7691 31.2644 15.702 31.3203C15.6294 31.3873 15.568 31.4152 15.5233 31.4152C15.4283 31.4097 15.2384 31.3817 14.9591 31.3259C14.6798 31.27 14.5122 31.2421 14.462 31.2365C13.5179 31.203 12.8253 31.2421 12.3952 31.3594C12.4008 31.2253 12.2611 31.175 11.9762 31.2086C12.0712 31.2141 12.1438 31.2365 12.1885 31.2868C12.1382 31.3761 12.0433 31.4152 11.898 31.4096C12.127 31.5549 12.289 31.6722 12.3784 31.7671C12.5795 31.5493 12.7247 31.4432 12.8197 31.4488C12.9147 31.4543 13.0655 31.4823 13.2777 31.5325C13.49 31.5828 13.6185 31.6107 13.6688 31.6163C13.8531 31.7616 13.9201 31.8286 13.8754 31.8286C13.9704 31.8342 13.9927 31.8007 13.9481 31.728C13.9034 31.661 13.9257 31.6275 14.0207 31.6275C14.1156 31.6331 14.2776 31.6834 14.5122 31.7839C14.7468 31.8845 14.9088 31.9347 15.0038 31.9347C15.0988 31.9403 15.2161 31.918 15.3613 31.8845C15.5512 31.89 15.6909 31.8956 15.7858 31.9012C15.8808 31.9068 16.0595 31.9347 16.3165 31.985C16.5734 32.0409 16.7522 32.0688 16.8471 32.0744C16.9421 32.08 17.0594 32.0576 17.2046 32.0185C17.3499 31.9794 17.4672 31.9627 17.5621 31.9682C17.7018 31.9738 17.847 32.0464 17.9811 32.1861L17.8359 32.3146C17.2717 32.2475 16.9142 32.214 16.7745 32.2084C16.5846 32.2029 16.445 32.1973 16.35 32.1917C16.1042 32.3593 16.0316 32.4486 16.1266 32.4542C16.0316 32.4486 15.9646 32.4263 15.9143 32.376C15.8193 32.3704 15.7244 32.3704 15.6294 32.3648C15.5847 32.3648 15.5568 32.3369 15.5624 32.2922C15.5624 32.2475 15.54 32.2252 15.4954 32.2252C15.4004 32.2196 15.177 32.2811 14.8139 32.4039C14.4564 32.5268 14.2273 32.5827 14.1324 32.5827C13.9927 32.5771 13.719 32.5101 13.3224 32.3816C12.9258 32.2531 12.6298 32.1861 12.4399 32.1805C12.5739 32.3648 12.5683 32.4989 12.4231 32.5883C12.3281 32.538 12.1885 32.5101 11.9986 32.5045C11.8589 32.4989 11.7863 32.5436 11.7807 32.633C10.8311 32.6441 10.239 32.6665 9.9988 32.7C8.809 32.9067 8.22807 33.0352 8.24482 33.0854C8.19455 33.0687 8.14428 33.0407 8.10518 33.0016C8.03814 32.929 7.95436 32.8955 7.85939 32.8899C7.81471 32.8899 7.75326 32.929 7.67506 33.0184C7.60244 33.1078 7.51865 33.1469 7.42369 33.1469L7.28404 33.1413C7.28404 33.0966 7.2617 33.0743 7.21701 33.0687L6.77573 33.3871C6.68077 33.3368 6.63608 33.2474 6.64166 33.1134C6.30092 33.3256 6.01604 33.4262 5.77585 33.4206C5.77585 33.4653 5.82053 33.5546 5.90432 33.6943C6.00487 33.6049 6.12217 33.5658 6.26182 33.5714C6.45174 33.577 6.59139 33.6273 6.68076 33.7222L6.46291 33.8507V33.7837C6.46291 33.739 6.41823 33.7166 6.32327 33.711C6.2283 33.7055 6.20596 33.7278 6.25065 33.7781C6.29534 33.8228 6.29534 33.8451 6.25065 33.8451C5.87081 33.8284 5.60827 33.9121 5.45745 34.0853C6.02721 34.0183 6.55229 34.035 7.02151 34.1468C6.92096 34.2752 6.87069 34.3199 6.87627 34.2752C6.5467 34.2641 6.16686 34.225 5.74233 34.1635L5.03292 34.1356C4.93796 34.13 4.86534 34.1523 4.81507 34.1914C4.77038 34.2361 4.69776 34.2529 4.59722 34.2529C2.79855 34.1859 1.70929 34.1412 1.32945 34.13L1.31269 34.6048C1.49703 34.7891 1.65902 34.7947 1.80984 34.6216L2.01652 34.7612C1.68136 34.7947 1.35179 34.8282 1.01664 34.8562C0.586522 34.8841 0.284882 34.8282 0.100547 34.683L0.0502733 35.9678C1.03898 36.1856 1.91039 36.2638 2.67007 36.2024C4.04421 36.1633 4.78155 36.1465 4.87651 36.1521C5.16139 36.1633 5.41835 36.2415 5.64737 36.3811C4.74245 36.4817 4.07772 36.5487 3.64761 36.5766C2.51925 36.7889 1.61433 36.8894 0.955193 36.8671L6.92655 36.8894C7.21143 36.9006 7.44604 36.9509 7.63037 37.0514C6.72545 37.2414 5.48538 37.3307 3.92132 37.314C3.87663 37.3587 3.77608 37.4089 3.63085 37.4704C3.48562 37.5318 3.39066 37.5597 3.34597 37.5597L0.647967 37.4592L0 37.638L4.96589 37.8279C5.04968 38.1016 5.13905 38.2412 5.23401 38.2412C5.32897 38.2468 5.82612 38.2301 6.72545 38.1965C7.63037 38.163 8.10518 38.1463 8.14986 38.1519C8.66935 38.1742 8.97658 38.2301 9.06595 38.325L8.92072 38.4535C8.78107 38.4479 8.63584 38.42 8.49619 38.3697C8.40123 38.3641 8.30627 38.3641 8.21131 38.3585C7.40693 38.3306 6.59698 38.4535 5.78143 38.7384C5.68647 38.7328 5.41835 38.6937 4.97147 38.6043C4.5246 38.5205 4.25647 38.4758 4.16151 38.4703L3.65878 38.6546C3.98835 38.6658 4.47432 38.7049 5.11112 38.7775C5.74792 38.8445 6.08866 38.8836 6.13893 38.8836C6.18362 38.8836 6.26182 38.8445 6.35678 38.7551C6.45733 38.6658 6.55229 38.6267 6.64725 38.6323C6.71987 38.6323 6.76455 38.6378 6.7869 38.6378C6.78131 38.7719 7.11088 38.8557 7.77002 38.878C7.67506 38.8724 7.79236 38.9451 8.11635 39.0959C8.07166 39.1406 8.11076 39.2076 8.25041 39.3026C9.09388 39.5595 9.72509 39.7383 10.1496 39.8444L10.496 40.1293L10.7138 39.9338C11.2836 39.9561 11.7584 39.9729 12.1326 39.9896C12.1773 39.9896 12.7136 40.0455 13.7246 40.1516C14.7413 40.2578 15.3166 40.3136 15.4618 40.3192C15.6071 40.3248 15.7691 40.4421 15.9478 40.6767C15.2161 42.4977 14.7859 43.8551 14.6575 44.7488C14.8083 44.531 14.9759 44.4919 15.1602 44.6315C15.0988 45.0784 14.8977 45.3633 14.5569 45.4862L14.4229 45.3465C14.4229 45.3018 14.4508 45.2348 14.5011 45.1454L12.5516 47.8434L12.6745 48.3182C13.4453 47.8546 13.9369 47.2513 14.1603 46.5028C14.1547 46.4749 14.138 46.3129 14.1156 46.0113C14.1212 45.9219 14.1436 45.8772 14.1882 45.8772C14.2776 46.0168 14.3726 46.0839 14.4675 46.0895C14.5625 46.095 14.6128 46.0057 14.6184 45.8269C14.6239 45.6482 14.6519 45.5365 14.7022 45.4918C14.7468 45.5811 14.7915 45.6314 14.8418 45.6314C14.9368 45.637 15.0932 45.5085 15.3166 45.246C15.54 44.9834 15.702 44.8326 15.797 44.7935C15.8864 44.9779 15.8417 45.179 15.6685 45.3968C15.4954 45.6147 15.406 45.7934 15.4004 45.9275C15.3948 46.1062 15.54 46.3241 15.8361 46.5866C16.1377 46.8436 16.4282 46.9832 16.7075 46.9944C16.7578 46.9944 16.9253 46.9441 17.2102 46.8436C17.4951 46.743 17.6906 46.6927 17.7856 46.6983C17.8805 46.7039 17.9141 46.7263 17.8917 46.7709C17.8694 46.8156 17.9029 46.838 17.9978 46.8436C17.9532 46.8436 18.238 46.7598 18.8581 46.6089C18.7017 47.0558 18.6458 47.2737 18.6905 47.2793C18.6905 47.3239 18.7352 47.3463 18.8301 47.3519C19.0201 47.3575 19.3608 47.1675 19.8468 46.7821C20.6735 46.2291 21.0142 45.9498 20.8746 45.9442C21.0142 45.9498 21.0645 45.9722 21.0142 46.0168C20.964 46.1956 20.9305 46.3073 20.9305 46.352C21.1595 46.5419 21.7851 46.7654 21.8801 46.81C22.6789 45.7599 23.2263 44.76 24.0027 43.0228C24.2653 42.4307 24.5725 41.7827 24.8518 41.3023C25.1311 40.8163 25.5053 40.5817 25.9801 40.6041C26.0751 40.6097 26.2147 40.6544 26.3991 40.7549C26.7789 40.8163 27.3208 40.8331 28.0302 40.8163C28.8848 40.8052 29.3093 40.8778 29.3038 41.0342C29.2982 41.1906 29.3764 41.6542 29.5328 42.4307C29.5328 42.4754 29.4266 42.7435 29.22 43.2295C29.0133 43.7154 28.9072 44.0059 28.9016 44.0953C28.896 44.1847 28.9798 44.2573 29.1418 44.3075C29.3093 44.3578 29.4099 44.4081 29.4546 44.4528L29.0077 45.0449C28.9183 44.9499 28.8736 44.8829 28.8736 44.8382C28.8736 44.8829 28.8457 44.9499 28.7954 45.0393C28.7452 45.1287 28.7172 45.2181 28.7116 45.3074C28.6949 45.7152 28.9965 45.9498 29.611 46.0168C29.2758 44.8326 29.4155 44.2517 30.0299 44.274C30.4545 44.2908 30.6947 44.5254 30.7505 44.9779C30.8064 45.4303 30.9237 45.7487 31.108 45.9386C31.4879 46.0001 31.6722 46.0615 31.6666 46.1286C31.6666 46.1956 31.6834 46.3408 31.7225 46.5698C31.7616 46.7933 31.7783 46.9553 31.7783 47.0447C32.0632 47.0558 32.4654 47.0056 32.9905 46.8882C33.0016 46.6201 33.1525 46.3967 33.4429 46.2291C33.5714 46.5922 33.7055 46.8212 33.8451 46.9218C34.2808 46.7598 34.5154 46.676 34.5657 46.6816C34.6607 46.6871 34.7333 46.7095 34.778 46.7542C34.8282 46.7542 34.8729 46.7598 34.9232 46.7598C34.9288 46.581 34.9567 46.4693 35.007 46.4246C35.0517 46.4246 35.1243 46.4525 35.2192 46.5028C35.2248 46.3688 35.2807 46.19 35.3812 45.9666L35.7387 45.9777C35.9231 46.1621 36.0851 46.2626 36.2247 46.2682C36.2415 45.866 36.7163 45.5644 36.8168 45.3856C37.0235 44.989 37.314 44.2014 37.7944 42.7994C38.2748 41.3973 38.3753 40.3471 38.878 39.5092H38.8892C39.3193 39.526 39.5539 39.5428 39.7047 39.5092H39.8444L39.9505 39.7159C39.9449 39.8667 40.012 39.7662 39.984 39.7271C40.3527 39.9114 40.8108 40.0399 41.3582 40.1069C41.118 39.8332 40.9281 39.6377 40.7772 39.5092H41.2297C41.2353 39.526 41.2409 39.5483 41.2353 39.5651C41.2353 39.5428 41.2465 39.526 41.252 39.5092L133.744 39.4646C133.744 39.4925 133.744 39.4981 133.755 39.4813C133.766 39.4925 133.783 39.5037 133.8 39.5037C133.839 39.5092 133.861 39.4925 133.85 39.459H133.973L133.99 39.3808C134.017 39.3752 134.04 39.3696 134.073 39.3584C134.129 39.3417 134.213 39.2132 134.241 39.2132C134.263 39.2188 134.28 39.2299 134.291 39.2523C134.297 39.2635 134.302 39.2746 134.308 39.2802C134.325 39.3249 134.403 39.3137 134.537 39.2355C134.66 39.1685 134.794 39.1406 134.855 39.1741C134.967 39.2411 135.397 39.1462 135.576 39.0177C135.593 39.0065 135.604 38.9842 135.621 38.9451C135.649 38.8948 135.671 38.8054 135.699 38.6937C135.783 38.3585 135.855 37.8223 135.866 37.4257C135.866 37.2916 135.906 36.9174 135.95 36.5878C135.995 36.2582 136.006 35.8505 135.984 35.6885C135.973 35.627 135.967 35.5656 135.967 35.5041C135.984 35.3645 136 35.2025 136.028 35.0293C136.056 34.9567 136.09 34.9009 136.129 34.8897C136.179 34.8729 136.179 34.9064 136.14 34.9679C136.095 35.0405 136.101 35.0684 136.162 35.0628C136.297 35.0461 136.391 34.4931 136.28 34.359C136.274 34.3534 136.274 34.3534 136.269 34.3478C136.263 34.3311 136.257 34.3199 136.252 34.2976C136.257 34.2976 136.263 34.3032 136.269 34.3087C136.313 34.3423 136.358 34.3367 136.364 34.3032C136.369 34.2696 136.347 34.2194 136.308 34.2026C136.196 34.1412 136.269 33.6775 136.397 33.6105C136.531 33.5435 136.587 33.3368 136.498 33.2586C136.486 33.2474 136.475 33.2251 136.464 33.1971C136.464 33.186 136.464 33.1748 136.464 33.1692C136.47 33.1413 136.47 33.1134 136.475 33.0798C136.475 33.0687 136.475 33.0575 136.481 33.0407C136.492 33.0016 136.503 32.9737 136.514 32.9625C136.531 32.9793 136.548 33.0072 136.576 33.0631C136.648 33.2027 136.665 33.1692 136.732 32.7168C136.799 32.2699 136.766 32.0409 136.626 32.0129C136.604 32.0073 136.587 32.0688 136.587 32.1526C136.526 32.1805 136.481 32.1861 136.447 32.1693C136.397 32.0967 136.397 32.0464 136.442 32.0185C136.486 31.9906 136.57 31.7727 136.621 31.5381L136.699 31.203C136.704 31.1974 136.704 31.1918 136.71 31.1918L136.676 31.4934C136.671 31.5605 136.665 31.6163 136.66 31.6666C136.626 31.8509 136.632 31.9068 136.671 31.8286C136.676 31.8454 136.688 31.8565 136.699 31.8509C136.738 31.8342 136.771 31.7504 136.76 31.661C136.76 31.6443 136.76 31.6219 136.76 31.6052C136.771 31.5716 136.783 31.5381 136.788 31.5046C136.799 31.4879 136.816 31.4711 136.833 31.4655C136.883 31.4488 136.911 31.4879 136.894 31.5549C136.877 31.6554 136.883 31.661 136.961 31.5884C136.972 31.5772 136.984 31.5605 136.995 31.5437C137.012 31.527 137.023 31.499 137.034 31.4599C137.123 31.2309 137.14 30.8231 137.045 30.7282C137.028 30.7114 137.012 30.6891 137 30.6667C136.989 30.5997 136.978 30.5103 136.978 30.4098C136.989 30.3036 137.012 30.1528 137.051 29.9405C137.073 29.8009 137.067 29.6892 137.034 29.678C137.034 29.6222 137.045 29.5831 137.056 29.5495C137.073 29.544 137.09 29.5384 137.112 29.5328C137.207 29.516 137.213 29.5775 137.146 29.8735C137.056 30.2645 137.073 30.3427 137.252 30.3148C137.33 30.3036 137.386 30.2143 137.414 30.0579C137.419 30.0411 137.419 30.0243 137.419 30.0132C137.436 29.907 137.425 29.8344 137.391 29.8456C137.19 29.9126 137.369 28.1195 137.581 27.9911C137.643 27.952 137.665 27.9743 137.654 28.086C137.648 28.1084 137.648 28.1307 137.648 28.1475C137.643 28.1922 137.637 28.2257 137.632 28.2536L137.598 28.4491L137.687 28.2368C137.71 28.1977 137.738 28.1419 137.771 28.0693L137.799 28.0078C137.827 27.9631 137.855 27.9352 137.866 27.9352L137.883 28.0302C137.883 28.0413 137.883 28.0469 137.877 28.0581C137.855 28.1642 137.872 28.1977 137.933 28.1586C137.995 28.1195 138.023 27.952 138.034 27.6168C138.039 27.3487 138.073 27.0806 138.101 27.0191C138.129 26.9577 138.14 27.0079 138.123 27.1252C138.106 27.2426 138.123 27.3487 138.157 27.3543C138.185 27.3599 138.201 27.3208 138.213 27.2649C138.218 27.2537 138.224 27.2314 138.218 27.2146C138.229 27.0861 138.213 26.9186 138.162 26.8851C138.062 26.8236 138.157 26.5834 138.302 26.5164C138.436 26.4549 138.436 26.4438 138.341 26.3432C138.335 26.332 138.33 26.3265 138.324 26.3209C138.28 26.265 138.257 26.1812 138.263 26.0919C138.268 26.0695 138.274 26.0527 138.28 26.0304C138.291 25.9969 138.296 25.9634 138.313 25.9243C138.324 25.8963 138.33 25.8684 138.335 25.8405C138.347 25.8405 138.358 25.8572 138.375 25.8908C138.414 25.9745 138.43 25.9354 138.436 25.7288C138.447 25.1702 138.274 25.3154 138.207 25.9243C138.196 25.9801 138.179 26.0248 138.168 26.0695C138.145 26.1365 138.112 26.198 138.078 26.2427C138 26.3488 138.034 26.1198 138.213 25.3713C138.453 24.377 138.732 23.4832 138.665 23.9245C138.637 24.1033 138.821 24.5445 138.872 24.444C138.883 24.4496 138.894 24.4496 138.905 24.4552C138.916 24.4719 138.922 24.4943 138.928 24.5166C138.955 24.6395 138.967 24.6339 139.006 24.4608C139.011 24.444 139.011 24.4272 139.011 24.4105C139.017 24.4049 139.022 24.3937 139.022 24.3881C139.022 24.3826 139.022 24.377 139.022 24.3714C139.022 24.3658 139.028 24.3658 139.028 24.3602C139.034 24.3379 139.028 24.3267 139.017 24.3155C139.017 24.2485 139 24.1926 138.978 24.1591C138.922 24.0865 138.928 24.0642 138.995 24.0809C139.112 24.1033 139.145 23.8854 139.073 23.7513C139.078 23.7234 139.067 23.7067 139.045 23.7067C139.034 23.6955 139.028 23.6843 139.017 23.6787C139 23.662 138.983 23.6452 138.967 23.6285C138.933 23.567 138.922 23.5 138.922 23.4385C138.955 23.2989 138.961 23.2989 138.983 23.4665C138.983 23.4776 138.989 23.4944 138.989 23.5056C138.983 23.5614 138.989 23.5894 139.006 23.5726C139.017 23.5894 139.022 23.567 139.039 23.5C139.039 23.4944 139.045 23.4832 139.045 23.4776C139.05 23.4553 139.056 23.433 139.062 23.405C139.073 23.3492 139.078 23.2933 139.078 23.2486C139.112 23.2319 139.106 23.2039 139.067 23.1425C139.056 23.109 139.045 23.0922 139.022 23.0866C139 23.0643 138.989 23.0699 138.978 23.0978C138.967 23.109 138.955 23.1201 138.944 23.1369C138.939 23.1425 138.933 23.1481 138.933 23.1537C138.928 23.1481 138.916 23.1425 138.905 23.1313C138.905 23.1201 138.905 23.1146 138.911 23.0978C138.922 23.0308 138.905 22.9749 138.872 22.9693C138.844 22.9637 138.872 22.7012 138.916 22.3828C138.922 22.3493 138.928 22.3158 138.933 22.2878C139.006 21.841 139.106 21.3271 139.162 21.2321C139.224 21.1315 139.268 21.1315 139.296 21.1986C139.302 21.2098 139.302 21.2265 139.307 21.2377C139.324 21.3159 139.319 21.4444 139.285 21.5896C139.274 21.651 139.257 21.7181 139.251 21.7851C139.246 21.7963 139.24 21.813 139.235 21.8354C139.224 21.8801 139.224 21.9136 139.235 21.9248C139.229 21.9862 139.224 22.0421 139.224 22.0867C139.218 22.1035 139.218 22.1203 139.224 22.1426C139.224 22.1649 139.229 22.1873 139.229 22.204C139.229 22.2208 139.235 22.2376 139.235 22.2431C139.24 22.2655 139.246 22.2822 139.251 22.2822C139.263 22.2822 139.296 22.232 139.335 22.1594C139.358 22.1147 139.363 22.0812 139.352 22.0532C139.363 21.9918 139.369 21.9192 139.363 21.8521C139.352 21.7683 139.358 21.7069 139.374 21.6734C139.386 21.651 139.397 21.6399 139.413 21.6343C139.453 21.6287 139.497 21.584 139.508 21.5393C139.52 21.489 139.559 21.4499 139.603 21.4444C139.654 21.4388 139.676 21.3438 139.67 21.193L139.665 20.9528L139.575 21.1762L139.486 21.3997L139.52 21.1874C139.536 21.0701 139.525 20.9528 139.497 20.9249C139.469 20.8969 139.486 20.7238 139.536 20.5339C139.592 20.3439 139.626 20.1149 139.62 20.0144L139.609 19.8412L139.508 19.992C139.453 20.0758 139.397 20.3272 139.374 20.5506C139.341 20.9416 139.335 20.9528 139.251 20.7796C139.184 20.6456 139.19 20.5339 139.274 20.2881C139.363 20.0255 139.402 19.7462 139.38 19.5731C139.391 19.4781 139.38 19.4334 139.33 19.4278C139.319 19.4167 139.307 19.4055 139.291 19.4055C139.173 19.3832 139.184 19.21 139.307 19.1709C139.352 19.1541 139.402 19.0592 139.425 18.953C139.458 18.7855 139.536 18.7073 139.62 18.7408C139.654 18.7519 139.687 18.7743 139.715 18.8078C139.782 18.886 139.805 18.8916 139.821 18.8301C139.827 18.7855 139.866 18.7799 139.905 18.8134C139.944 18.8469 139.961 18.8246 139.972 18.7464C139.983 18.7352 139.989 18.7073 139.994 18.6737C140.006 18.6346 140 18.5564 139.978 18.5173ZM44.0115 8.14986C43.9556 8.256 43.8439 8.50178 43.6708 8.90396C43.6763 8.72521 43.6372 8.58556 43.5423 8.49619C43.5925 8.49619 43.749 8.37889 44.0115 8.14986ZM43.2742 10.1049L43.4194 10.1105L43.4026 10.5127L43.2574 10.5071L43.2742 10.1049ZM6.66401 21.2098L6.30651 21.1986C6.45733 21.0254 6.58022 20.8969 6.67518 20.8076L6.66401 21.2098ZM10.5351 22.232L9.89826 22.2096L9.90384 22.0085L10.5406 22.0309L10.5351 22.232ZM14.3111 31.499L13.9536 31.4879L13.9592 31.2812L14.3167 31.2923L14.3111 31.499ZM5.31221 38.1128L5.17257 38.1072L5.32339 37.8446L5.46303 37.9172L5.31221 38.1128ZM5.88198 38.0681L5.53006 38.0513L5.53565 37.9172L5.89315 37.9284L5.88198 38.0681ZM9.35084 38.5373L9.14416 38.325C9.37877 38.3362 9.90384 38.3083 10.7082 38.2468C10.1831 38.4535 9.73068 38.5485 9.35084 38.5373ZM28.0693 9.524C28.0749 9.50166 28.0804 9.47931 28.086 9.46255C28.0804 9.54634 28.0749 9.5631 28.0693 9.524ZM28.1475 7.83705L27.9352 7.83147L28.0246 7.36225L28.2368 7.36783L28.1475 7.83705ZM32.0967 8.66377L32.2364 8.66935L32.2252 9.00451L32.0855 8.99892L32.0967 8.66377ZM31.499 11.278C31.5046 11.1886 31.5661 11.3227 31.6945 11.6913L31.5493 11.6858C31.4711 11.4567 31.4488 11.3171 31.499 11.278ZM30.2422 23.796C30.812 23.8184 31.0242 23.8463 30.879 23.8854C30.9684 24.0697 30.9293 24.3602 30.7729 24.7568C30.6835 24.6619 30.7058 24.5725 30.8566 24.4887C30.8622 24.3546 30.8399 24.2876 30.7952 24.282C30.7002 24.3211 30.65 24.3658 30.65 24.4105C30.6556 24.3211 30.6332 24.2317 30.5885 24.1368C30.3148 25.1143 30.097 25.874 29.935 26.4102C30.0188 26.7286 30.0579 26.8627 30.0634 26.818C29.9685 26.8124 29.8624 26.8459 29.7395 26.9074C29.6222 26.9688 29.5104 27.0024 29.4155 26.9968C29.8847 25.6282 30.164 24.5557 30.2422 23.796ZM29.3149 27.5442L29.4546 27.5498L29.4378 27.9575L29.2982 27.952L29.3149 27.5442ZM33.5826 30.2478C32.8117 30.5327 31.5884 30.6891 31.1136 30.717C30.6388 30.7449 30.2589 30.7952 29.9685 30.8734C29.9573 31.1862 29.8791 31.4096 29.7283 31.5381C29.5831 31.6666 29.2702 31.7225 28.801 31.7057L29.1027 31.175L29.3149 31.2532C29.3205 31.1192 29.2926 30.9684 29.2256 30.812C29.1585 30.65 29.1306 30.5047 29.1362 30.3707C29.1474 30.0579 29.3764 29.7059 29.8177 29.3149C29.8232 29.1809 29.8288 29.0691 29.8288 28.9798C30.1249 28.7228 30.3651 28.3039 30.555 27.7229C30.7449 27.142 30.7952 26.7175 30.7114 26.4438C30.7114 26.4885 30.7952 26.0639 30.9739 25.1702C31.1583 24.1424 31.3426 23.6285 31.5325 23.6396L35.0796 23.7737L33.5826 30.2478ZM42.6485 7.84822L42.8608 7.85381L42.8496 8.18896L42.6374 8.18338L42.6485 7.84822ZM41.3414 6.65284L41.4867 6.65842L41.3861 7.46279L41.1738 7.45721L41.3414 6.65284ZM44.6762 34.845H41.1683L44.4304 19.4055H47.9384L44.6762 34.845ZM136.581 32.2196C136.587 32.3146 136.581 32.3313 136.531 32.2811C136.537 32.2475 136.559 32.2308 136.581 32.2196ZM51.2788 34.845L49.2958 19.4055H52.8596L53.9042 30.0858C53.9265 30.3372 53.9377 30.5941 53.9433 30.8566C53.9489 31.1192 53.9265 31.3594 53.8818 31.5828H53.9656C54.0326 31.3761 54.1164 31.1415 54.217 30.8846C54.3231 30.6276 54.446 30.3483 54.5968 30.0467L59.9593 19.4111H63.7912L55.1163 34.845H51.2788ZM71.0194 34.845L70.5781 31.4096H65.0425L63.2327 34.845H59.3113L68.2153 19.4055H72.3601L74.5665 34.845H71.0194ZM90.0954 34.845H86.917L82.0852 25.0361C82.0405 24.9523 81.9958 24.8518 81.9455 24.7345C81.8952 24.6172 81.8449 24.5054 81.7947 24.3826C81.7444 24.2653 81.6997 24.1535 81.655 24.0418C81.6103 23.9357 81.5824 23.8351 81.5601 23.7513H81.493C81.4595 24.0195 81.4204 24.3155 81.3757 24.6451C81.331 24.9747 81.2696 25.3042 81.1914 25.6226L79.2196 34.8394H75.9574L79.2196 19.3999H82.6661L87.2968 28.8401C87.3303 28.9183 87.375 29.0133 87.4309 29.125C87.4867 29.2367 87.537 29.3484 87.5929 29.4713C87.6487 29.5886 87.699 29.7059 87.7437 29.8232C87.7884 29.9406 87.8219 30.0411 87.8442 30.1249H87.8889C87.8945 30.0188 87.9057 29.8959 87.9224 29.7618C87.9392 29.6277 87.956 29.4937 87.9783 29.3596C88.0006 29.2256 88.023 29.0915 88.0509 28.963C88.0733 28.8345 88.1012 28.7172 88.1235 28.6167L90.0842 19.3999H93.3687L90.0954 34.845ZM106.261 31.2923C105.926 32.1023 105.479 32.795 104.92 33.3591C104.362 33.9289 103.675 34.359 102.848 34.6607C102.021 34.9623 101.016 35.1131 99.8205 35.1131C98.9602 35.1131 98.1838 34.9958 97.4967 34.7556C96.8096 34.521 96.2231 34.1747 95.7427 33.7278C95.2623 33.2809 94.8937 32.7335 94.6311 32.0911C94.3742 31.4488 94.2457 30.717 94.2457 29.9014C94.2457 29.5272 94.2736 29.1194 94.3295 28.667C94.3854 28.2201 94.458 27.8011 94.5473 27.4101L96.2678 19.3999H99.7758L98.033 27.4325C97.9548 27.8123 97.8821 28.1922 97.8151 28.572C97.7481 28.9518 97.7202 29.2758 97.7202 29.5384C97.7202 29.9573 97.7816 30.3204 97.9101 30.6444C98.033 30.9628 98.2117 31.2309 98.4352 31.4488C98.6586 31.6666 98.9267 31.8286 99.2339 31.9403C99.5412 32.052 99.8652 32.1079 100.217 32.1079C100.625 32.1079 101.005 32.0464 101.357 31.9236C101.708 31.8007 102.021 31.5996 102.306 31.3203C102.585 31.041 102.831 30.6667 103.049 30.2087C103.267 29.745 103.446 29.1753 103.585 28.4938L105.546 19.4055H109.054L107.082 28.5552C106.875 29.5719 106.596 30.4824 106.261 31.2923ZM118.008 34.845H108.791L112.076 19.4055H115.584L112.914 31.9794H118.612L118.008 34.845ZM131.113 22.2376H125.717L124.985 25.7176H130.012L129.398 28.5608H124.393L123.639 32.0297H129.398L128.795 34.8506H119.539L122.823 19.4111H131.716L131.113 22.2376ZM135.347 34.8953C135.313 34.9455 135.297 34.9679 135.28 34.9567C135.269 34.94 135.263 34.9009 135.258 34.8282C135.252 34.7277 135.274 34.5489 135.308 34.426L135.375 34.2082L135.397 34.4931C135.414 34.6495 135.392 34.8282 135.347 34.8953ZM135.984 31.0019C135.922 31.2644 135.872 31.527 135.833 31.7504C135.794 31.8398 135.771 31.9682 135.788 32.0409C135.783 32.08 135.783 32.1135 135.777 32.1414C135.76 32.2922 135.749 32.4151 135.749 32.4989C135.749 32.7279 135.738 32.9681 135.721 33.0407C135.704 33.1134 135.626 33.3759 135.548 33.6217L135.408 34.0574L135.403 33.8563V33.7669C135.403 33.4429 135.453 33.091 135.559 32.7C135.593 32.5771 135.671 32.1582 135.727 31.7727C135.844 31.0242 135.989 30.4545 136.068 30.4656C136.079 30.4712 136.045 30.6947 135.984 31.0019ZM136.263 29.935C136.23 30.0188 136.19 30.0802 136.174 30.0746C136.157 30.069 136.162 29.9964 136.179 29.9014C136.179 29.8959 136.185 29.8847 136.185 29.8791C136.207 29.8288 136.224 29.7897 136.241 29.7618C136.252 29.7506 136.263 29.745 136.274 29.745C136.28 29.745 136.285 29.7506 136.285 29.7562C136.28 29.8065 136.274 29.8679 136.263 29.935ZM137.302 30.1863C137.285 30.2087 137.257 30.2198 137.229 30.2143C137.213 30.2087 137.201 30.2031 137.19 30.1919C137.19 30.1696 137.196 30.1361 137.196 30.1025C137.213 30.097 137.229 30.1025 137.252 30.1193C137.274 30.1361 137.296 30.164 137.302 30.1863ZM138.732 23.433C138.698 23.4441 138.654 23.4274 138.62 23.3827C138.604 23.3603 138.615 23.2821 138.654 23.2095C138.704 23.1146 138.726 23.109 138.76 23.1816C138.777 23.2151 138.782 23.2542 138.788 23.2933C138.777 23.3436 138.754 23.3938 138.732 23.433ZM138.833 21.193C138.704 21.841 138.57 22.0197 138.587 21.5226C138.587 21.489 138.592 21.4611 138.592 21.4276C138.609 21.3606 138.626 21.288 138.643 21.2153C138.654 21.193 138.671 21.1818 138.687 21.1762C138.738 21.1595 138.782 21.0422 138.788 20.8969C138.793 20.7629 138.838 20.64 138.877 20.6232C138.922 20.6121 138.905 20.8355 138.833 21.193Z" fill="#FFE603"/>
<path id="Vector_2" d="M69.7458 23.1481C69.7403 23.0084 69.7403 22.8744 69.7458 22.7459C69.7514 22.6174 69.757 22.5001 69.7626 22.394C69.7682 22.2878 69.7794 22.2152 69.7849 22.1649H69.7179C69.7011 22.232 69.6788 22.3102 69.6453 22.4107C69.6118 22.5113 69.5671 22.623 69.5224 22.7403C69.4777 22.8576 69.4219 22.9805 69.3604 23.109C69.299 23.2374 69.2375 23.3659 69.1705 23.4832L66.3496 28.7396H70.3212L69.7626 23.5279C69.757 23.4162 69.7514 23.2877 69.7458 23.1481Z" fill="#FFE603"/>
<path id="Vector_3" d="M33.6831 11.764L33.5435 11.6913L33.4597 12.0935L33.5993 12.0991L33.6831 11.764Z" fill="#FFE603"/>
<path id="Vector_4" d="M33.5938 12.2332L33.4541 12.1606L32.9961 13.0208L33.1357 13.0264L33.5938 12.2332Z" fill="#FFE603"/>
<path id="Vector_5" d="M32.5268 14.0821L32.6665 14.1603L32.8229 13.8922L32.6832 13.8196L32.5268 14.0821Z" fill="#FFE603"/>
<path id="Vector_6" d="M33.0519 13.4286L32.9178 13.2219L32.7726 13.2163L32.9067 13.49L33.0519 13.4286Z" fill="#FFE603"/>
<path id="Vector_7" d="M33.8841 10.2197L33.8741 10.4876L34.0137 10.4928L34.0236 10.2249L33.8841 10.2197Z" fill="#FFE603"/>
<path id="Vector_8" d="M26.8629 6.03392L26.8501 6.36884L26.9953 6.37435L27.008 6.03943L26.8629 6.03392Z" fill="#FFE603"/>
<path id="Vector_9" d="M28.5217 5.42392L28.6111 4.88208L28.4715 4.8765L28.3095 5.41274L28.5217 5.42392Z" fill="#FFE603"/>
<path id="Vector_10" d="M29.3205 3.15605L29.1864 2.94937L29.0412 2.94379L29.1753 3.2175L29.3205 3.15605Z" fill="#FFE603"/>
<path id="Vector_11" d="M34.5657 5.44627L34.4428 4.97147C34.4372 5.1949 34.359 5.30662 34.2138 5.30104C34.3032 5.396 34.4205 5.44068 34.5657 5.44627Z" fill="#FFE603"/>
<path id="Vector_12" d="M28.6558 3.73698C28.6111 3.73698 28.5273 3.75374 28.4044 3.79284C28.2871 3.83194 28.2033 3.85429 28.1531 3.8487C27.9185 5.05526 27.7956 5.70323 27.7956 5.7926C28.1028 5.22284 28.3877 4.53577 28.6558 3.73698Z" fill="#FFE603"/>
<path id="Vector_13" d="M35.9007 5.83729L36.1298 5.37366L35.9901 5.30104L35.7611 5.76467L35.9007 5.83729Z" fill="#FFE603"/>
<path id="Vector_14" d="M40.9195 4.67369L40.8987 5.21515L41.0438 5.22073L41.0646 4.67927L40.9195 4.67369Z" fill="#FFE603"/>
<path id="Vector_15" d="M44.0674 5.94342L43.9277 5.93784L43.9165 6.21155L44.0618 6.21713L44.0674 5.94342Z" fill="#FFE603"/>
<path id="Vector_16" d="M34.4316 8.85369C34.3814 8.96541 34.3311 9.02127 34.2864 9.01568C34.2752 9.32849 34.2641 9.55193 34.2585 9.69158L34.1132 9.82005C34.2529 9.87033 34.3702 9.94294 34.4596 10.0379C34.2138 10.3004 34.035 10.6077 33.9289 10.9652C33.8842 10.8702 33.8675 10.8032 33.8675 10.7585C33.8563 10.9819 33.8228 11.3674 33.7501 11.9036C33.6887 12.3728 33.6552 12.7303 33.6384 12.9984C33.9066 13.328 34.0685 13.6017 34.1021 13.8084L36.2415 6.1892C35.8616 6.26182 35.5767 6.30092 35.3868 6.28975C35.3812 6.42381 35.3533 6.51319 35.303 6.55787C35.2583 6.46291 35.2416 6.32885 35.2472 6.1501C34.9958 6.59139 34.8171 6.92096 34.7109 7.14439C34.8003 7.23936 34.845 7.32873 34.8394 7.41811C34.845 7.23936 34.9008 7.14998 34.9902 7.14998C35.2248 7.16115 35.3701 7.18908 35.4148 7.23377C35.3645 7.27846 35.3365 7.379 35.331 7.53541C35.3254 7.69182 35.2974 7.79236 35.2472 7.83705C35.1075 7.6974 34.9958 7.62478 34.9008 7.6192C34.845 7.79795 34.7724 7.90408 34.6774 7.94877C34.7668 8.08842 34.7612 8.24482 34.6607 8.41799C34.5601 8.60232 34.4875 8.74197 34.4316 8.85369ZM35.2807 7.09971L35.2863 6.89861V6.83158L35.4985 6.83717L35.4874 7.10529L35.2807 7.09971Z" fill="#FFE603"/>
<path id="Vector_17" d="M45.3934 6.67418L45.3804 7.00906L45.5256 7.0147L45.5386 6.67981L45.3934 6.67418Z" fill="#FFE603"/>
<path id="Vector_18" d="M44.3858 5.14464L44.2517 4.93796L44.1735 5.07202L44.3132 5.21167L44.3858 5.14464Z" fill="#FFE603"/>
<path id="Vector_19" d="M44.1603 5.46884L44.1447 5.87633L44.2898 5.8819L44.3054 5.47442L44.1603 5.46884Z" fill="#FFE603"/>
<path id="Vector_20" d="M36.6213 1.80985L36.4817 1.80426L36.1465 3.07785L36.2918 3.08344L36.6213 1.80985Z" fill="#FFE603"/>
<path id="Vector_21" d="M33.6328 13.1158C33.6328 13.0822 33.6384 13.0375 33.6384 12.9984C33.6161 12.9705 33.5937 12.9426 33.5658 12.9091C33.5658 12.9984 33.5882 13.0655 33.6328 13.1158Z" fill="#FFE603"/>
<path id="Vector_22" d="M35.722 4.95471C35.6773 4.90444 35.655 4.81506 35.6605 4.681C35.6103 4.81506 35.5544 5.00498 35.4986 5.25076C35.4427 5.49654 35.3868 5.68647 35.3366 5.82053C35.4427 5.50772 35.6214 5.20049 35.8672 4.89326C35.8616 4.93237 35.817 4.95471 35.722 4.95471Z" fill="#FFE603"/>
<path id="Vector_23" d="M14.2106 17.2382L14.0039 17.0929L13.9257 17.227L14.1324 17.3722L14.2106 17.2382Z" fill="#FFE603"/>
<path id="Vector_24" d="M27.6029 3.36262L27.5954 3.56357L27.8076 3.57148L27.8151 3.37053L27.6029 3.36262Z" fill="#FFE603"/>
<path id="Vector_25" d="M15.1683 23.828L15.1631 23.962L15.5874 23.9782L15.5925 23.8442L15.1683 23.828Z" fill="#FFE603"/>
<path id="Vector_26" d="M15.444 24.0408L15.439 24.1748L15.9358 24.1936L15.9408 24.0596L15.444 24.0408Z" fill="#FFE603"/>
<path id="Vector_27" d="M8.11633 22.2767L7.97668 22.2711L8.11075 22.5448L8.2504 22.5504L8.11633 22.2767Z" fill="#FFE603"/>
<path id="Vector_28" d="M4.97024 21.0098L4.96521 21.1437L5.24989 21.1544L5.25492 21.0205L4.97024 21.0098Z" fill="#FFE603"/>
<path id="Vector_29" d="M45.3521 7.82031C45.2907 8.03258 45.2348 8.22809 45.179 8.43476C45.2013 8.38449 45.2292 8.32863 45.2683 8.25601C45.3633 8.05492 45.3968 7.90969 45.3521 7.82031Z" fill="#FFE603"/>
<path id="Vector_30" d="M44.0444 10.3385L44.0265 10.8074L44.2386 10.8155L44.2565 10.3466L44.0444 10.3385Z" fill="#FFE603"/>
<path id="Vector_31" d="M4.71637 33.2966L4.71133 33.4305L5.06858 33.444L5.07363 33.31L4.71637 33.2966Z" fill="#FFE603"/>
<path id="Vector_32" d="M11.5852 32.0688L11.44 32.1302L11.5797 32.2699L11.7249 32.2084L11.5852 32.0688Z" fill="#FFE603"/>
<path id="Vector_33" d="M6.1501 23.5503L4.79831 23.6341L4.79272 23.7681L6.14452 23.7569L6.1501 23.5503Z" fill="#FFE603"/>
<path id="Vector_34" d="M9.33966 23.8798L9.33408 24.0139L9.75302 24.1647L9.75861 24.0251L9.33966 23.8798Z" fill="#FFE603"/>
<path id="Vector_35" d="M7.42932 23.6005L6.29538 23.4888L6.28979 23.6229L7.42374 23.8016L7.42932 23.6005Z" fill="#FFE603"/>
<path id="Vector_36" d="M14.1662 46.4861C14.1662 46.492 14.1603 46.4979 14.1603 46.5038C14.1603 46.5156 14.1603 46.5156 14.1662 46.4861Z" fill="#FFE603"/>
<path id="Vector_37" d="M3.60853 19.3999C3.6588 19.3999 3.89341 19.3664 4.32353 19.2938C4.56372 19.2547 4.70896 19.1485 4.76481 18.9698L3.63087 18.9251C3.77052 19.0201 3.86548 19.0927 3.90458 19.1374C3.51915 19.3105 3.41861 19.3943 3.60853 19.3999Z" fill="#FFE603"/>
<path id="Vector_38" d="M41.9056 40.4477C41.6207 40.4365 41.4587 40.4086 41.4084 40.3583C41.4029 40.4923 41.3749 40.5817 41.3247 40.6264L41.118 40.4141L40.7605 40.403C40.9895 40.5929 41.2018 40.7325 41.3861 40.8331C41.3917 40.699 41.4196 40.5873 41.4699 40.4979C41.604 40.6376 41.6989 40.7102 41.7436 40.7102C41.6989 40.7102 41.8888 40.6264 42.319 40.4644L42.1179 40.1851C42.1234 40.3695 42.0452 40.4532 41.9056 40.4477Z" fill="#FFE603"/>
<path id="Vector_39" d="M1.60003 38.512L1.59494 38.6459L3.50957 38.7187L3.51466 38.5848L1.60003 38.512Z" fill="#FFE603"/>
<path id="Vector_40" d="M18.724 23.7625C18.6458 23.7849 18.5564 23.8016 18.4503 23.824C18.5397 23.8631 18.6347 23.8407 18.724 23.7625Z" fill="#FFE603"/>
<path id="Vector_41" d="M7.66949 22.8688V22.8859C7.68661 22.8802 7.69232 22.8745 7.70944 22.8688H7.66949Z" fill="#FFE603"/>
<path id="Vector_42" d="M33.4318 1.65344C33.5156 1.43559 33.5993 1.22333 33.6664 1.02223C33.5993 1.1954 33.5211 1.40766 33.4318 1.65344Z" fill="#FFE603"/>
<path id="Vector_43" d="M10.9819 17.9308C10.859 17.9252 10.7417 17.9196 10.63 17.9141C10.7026 17.9532 10.8199 17.9532 10.9819 17.9308Z" fill="#FFE603"/>
<path id="Vector_44" d="M18.3218 24.053C18.2269 24.0586 18.1207 24.0641 18.0146 24.0697C18.0649 24.0697 18.1319 24.0753 18.2157 24.0753C18.2548 24.0697 18.2883 24.0642 18.3218 24.053Z" fill="#FFE603"/>
<path id="Vector_45" d="M45.1063 8.61907L45.1175 8.63025C45.1343 8.56322 45.1566 8.49618 45.1734 8.42915C45.1343 8.52411 45.1063 8.59115 45.1063 8.61907Z" fill="#FFE603"/>
<path id="Vector_46" d="M18.5732 24.0251C18.5062 24.0251 18.4168 24.0362 18.3218 24.0586C18.495 24.0474 18.6514 24.0418 18.7855 24.0362L18.5732 24.0251Z" fill="#FFE603"/>
</g>
</g>
</svg>
