<svg width="33" height="33" viewBox="0 0 33 33" fill="none" xmlns="http://www.w3.org/2000/svg">
<g id="icon_youtube">
<path id="Subtract" fill-rule="evenodd" clip-rule="evenodd" d="M26.4631 25.2724C28.7453 24.9713 30.44 23.4622 30.6967 21.131C30.7043 21.0611 30.7164 20.9678 30.7315 20.8517C30.8175 20.1897 31 18.7845 31 16.7313C31 14.8706 30.8332 13.5184 30.7452 12.8052C30.7221 12.618 30.7045 12.4748 30.6967 12.378C30.5039 9.97802 28.8723 8.54302 26.4631 8.23744C23.9946 7.92381 22.1802 7.71741 16.5142 7.71741C10.8335 7.71741 9.00356 7.86573 6.53687 8.23744C4.18073 8.59217 2.5107 10.0647 2.30331 12.378C2.29566 12.4633 2.27991 12.5981 2.25944 12.7734C2.17243 13.5183 2 14.9947 2 16.5079C2 18.6146 2.17271 20.0333 2.26 20.7503C2.27989 20.9137 2.29534 21.0406 2.30331 21.131C2.5107 23.4872 4.17982 24.9722 6.53687 25.2724C9.0127 25.5878 10.9733 25.7174 16.5142 25.7174C21.8769 25.7174 23.9964 25.5968 26.4631 25.2724ZM21.2449 16.7174L14.5092 20.9806V12.4543L21.2449 16.7174Z" fill="white"/>
</g>
</svg>
