<svg width="23" height="23" viewBox="0 0 23 23" fill="none" xmlns="http://www.w3.org/2000/svg">
<g id="Group">
<path id="Vector" d="M16.0793 23H6.92356C5.07344 23 3.33537 22.2789 2.02822 20.9718C0.72108 19.6646 0 17.9266 0 16.0764V6.92356C0 5.07344 0.72108 3.33537 2.02822 2.02823C3.33537 0.721083 5.07344 0 6.92356 0H16.0793C17.9294 0 19.6675 0.721083 20.9746 2.02823C22.2818 3.33537 23.0029 5.07344 23.0029 6.92356V16.0793C23.0029 17.9294 22.2818 19.6675 20.9746 20.9746C19.6675 22.2789 17.9294 23 16.0793 23ZM6.92642 1.89895C4.157 1.89895 1.90182 4.15126 1.90182 6.92356V16.0793C1.90182 18.8487 4.15413 21.1039 6.92642 21.1039H16.0822C18.8516 21.1039 21.1068 18.8516 21.1068 16.0793V6.92356C21.1068 4.15413 18.8545 1.89895 16.0822 1.89895H6.92642Z" fill="white"/>
<path id="Vector_2" d="M11.5028 17.3692C8.26801 17.3692 5.63361 14.7376 5.63361 11.4999C5.63361 8.26511 8.26513 5.63071 11.5028 5.63071C14.7405 5.63071 17.3721 8.26223 17.3721 11.4999C17.3721 14.7348 14.7377 17.3692 11.5028 17.3692ZM11.5028 7.52966C9.31372 7.52966 7.53256 9.31082 7.53256 11.4999C7.53256 13.689 9.31372 15.4702 11.5028 15.4702C13.6919 15.4702 15.4731 13.689 15.4731 11.4999C15.4731 9.31082 13.6919 7.52966 11.5028 7.52966Z" fill="white"/>
<path id="Vector_3" d="M17.5507 6.57885C18.1726 6.57885 18.6768 6.07465 18.6768 5.45269C18.6768 4.83074 18.1726 4.32654 17.5507 4.32654C16.9287 4.32654 16.4245 4.83074 16.4245 5.45269C16.4245 6.07465 16.9287 6.57885 17.5507 6.57885Z" fill="white"/>
</g>
</svg>
