<svg width="18" height="23" viewBox="0 0 18 23" fill="none" xmlns="http://www.w3.org/2000/svg">
<g id="User Interface 04">
<g id="Group">
<path id="Vector" d="M8.34818 12.0155C11.6604 12.0155 14.3556 9.32028 14.3556 6.00804C14.3556 2.69518 11.6604 0 8.34818 0C5.03595 0 2.34076 2.69518 2.34076 6.00804C2.34013 9.3209 5.03595 12.0155 8.34818 12.0155ZM8.34818 1.76899C10.6853 1.76899 12.5866 3.67029 12.5866 6.00742C12.5866 8.34454 10.6853 10.2458 8.34818 10.2458C6.01105 10.2458 4.10975 8.34454 4.10975 6.00742C4.10975 3.67092 6.01105 1.76899 8.34818 1.76899Z" fill="white"/>
<path id="Vector_2" d="M8.56966 12.8821C3.84462 12.8821 0 16.7261 0 21.4517V22.1155C0 22.604 0.396001 23 0.884494 23C1.37299 23 1.76899 22.604 1.76899 22.1155V21.4517C1.76899 17.7024 4.81972 14.6517 8.56903 14.6517C12.3183 14.6517 15.3691 17.7024 15.3691 21.4517V22.1155C15.3691 22.604 15.7651 23 16.2536 23C16.7421 23 17.1381 22.604 17.1381 22.1155V21.4517C17.1387 16.7261 13.2947 12.8821 8.56966 12.8821Z" fill="white"/>
</g>
</g>
</svg>
